<?xml version="1.0" encoding="UTF-8" standalone="no"?><!DOCTYPE svg PUBLIC "-//W3C//DTD SVG 1.1//EN" "http://www.w3.org/Graphics/SVG/1.1/DTD/svg11.dtd"><svg width="100%" height="100%" viewBox="0 0 587 527" version="1.1" xmlns="http://www.w3.org/2000/svg" xmlns:xlink="http://www.w3.org/1999/xlink" xml:space="preserve" xmlns:serif="http://www.serif.com/" style="fill-rule:evenodd;clip-rule:evenodd;stroke-linejoin:round;stroke-miterlimit:2;"><path d="M100.728,493.557c-7.491,0.245 -17.022,0.923 -18.148,-7.66c-2.075,-15.825 1.547,-35.231 0.079,-51.458c1.187,-6.784 10.947,-7.218 17.058,-6.832c-1.064,-8.307 -5.917,-16.117 -11.562,-22.593c-22.395,-25.694 -54.707,-49.163 -78.016,-74.549c-4.766,-5.191 -8.371,-10.658 -9.839,-17.371l-0.299,-181.378c4.897,-43.42 77.823,-43.199 81.63,0c2.805,31.713 -3.526,68.08 -0.026,99.39c0.8,7.131 5.108,12.259 13.066,14.018c8.414,-22.459 39.593,-30.924 61.741,-18.791c29.095,26.956 65.847,53.62 92.849,82.012c5.232,5.498 15.589,20.566 15.589,27.571l0,91.691c7.333,-0.237 15.501,-0.844 18.464,6.469c-0.07,15.817 2.374,34.49 0.721,50.038c-1.117,10.516 -9.663,9.719 -19.185,9.443l0,27.555c0,1.712 -5.056,5.522 -7.526,4.986l-148.102,0.039c-3.183,0.773 -8.494,-3.629 -8.494,-5.932l0,-26.648Zm17.119,-65.95l129.892,0l0,-85.372c0,-5.522 -5.601,-15.927 -9.558,-20.337l-88.093,-79.96c-25.815,-16.235 -54.127,10.216 -33.763,33.007c11.984,13.419 30.712,25.457 43.259,38.876c5.715,8.157 -3.508,16.275 -12.494,11.21c-18.06,-19.998 -51.252,-35.563 -55.613,-62.574c-12.283,-5.072 -24.1,-11.352 -26.738,-24.345c-2.471,-32.667 2.392,-67.686 -0.22,-100.077c-2.286,-28.289 -38.503,-31.792 -46.363,-5.388l0.448,179.375c0.879,3.731 6.128,8.686 9.109,11.707c23.335,23.69 53.775,47.246 75.001,71.835c8.08,9.364 13.927,20.069 15.132,32.044m148.014,16.267l-165.133,0l0,33.425l165.133,0l0,-33.425Zm-18.121,49.683l-128.881,0l0,16.259l128.881,0l0,-16.259Z" style="fill:#37caca;fill-rule:nonzero;"/><path d="M321.239,335.914c1.231,-8.686 9.311,-20.897 15.598,-27.563c26.747,-28.384 63.931,-55.071 92.849,-82.019c22.148,-12.125 53.327,-3.66 61.733,18.791c7.966,-1.759 12.266,-6.887 13.066,-14.01c3.535,-31.602 -3.306,-68.577 -0.035,-100.306c4.308,-41.771 76.117,-42.323 81.595,0.047l-0.255,181.339c-1.433,7.281 -4.686,12.669 -9.83,18.278c-23.432,25.504 -55.156,48.816 -78.025,74.541c-5.671,6.39 -10.296,14.405 -11.536,22.546c1.31,1.609 15.422,-2.375 17.031,6.879c-1.46,16.227 2.154,35.634 0.079,51.466c-1.125,8.575 -10.648,7.897 -18.148,7.652l0,26.656c0,2.296 -5.302,6.698 -8.494,5.932l-148.102,-0.047c-2.471,0.536 -7.526,-3.274 -7.526,-4.986l0,-27.555c-9.522,0.276 -18.06,1.073 -19.185,-9.435c-1.653,-15.557 0.8,-34.229 0.721,-50.038c2.972,-7.321 11.131,-6.713 18.464,-6.469l0,-91.699Zm147.012,91.699c1.196,-11.975 7.043,-22.688 15.132,-32.052c21.181,-24.542 51.674,-48.153 74.992,-71.827c2.981,-3.029 8.23,-7.983 9.109,-11.707l0.448,-179.383c-7.905,-26.348 -44.007,-23.004 -46.354,5.388c-2.682,32.344 2.295,67.449 -0.229,100.077c-2.629,12.993 -14.455,19.28 -26.729,24.345c-4.361,27.011 -37.562,42.576 -55.622,62.582c-8.625,4.859 -17.699,-2.382 -12.907,-10.689l45.176,-40.769c18.174,-22.025 -11.202,-49.242 -36.77,-30.285c-30.22,22.404 -57.099,54.914 -86.589,78.611c-3.948,4.402 -9.549,14.807 -9.549,20.337l0,85.372l129.892,0Zm17.11,16.259l-165.133,0l0,33.425l165.133,0l0,-33.425Zm-18.121,49.683l-128.881,0l0,16.259l128.881,0l0,-16.259Z" style="fill:#37caca;fill-rule:nonzero;"/><path d="M319.232,86.141l0.589,1.846c41.132,11.888 70.93,47.546 73.901,86.224c0.791,10.287 1.275,29.827 0.035,39.767c-0.422,3.439 -2.075,6.279 -5.812,7.415l-208.735,-0.166c-3.218,-1.199 -4.599,-3.242 -5.003,-6.35c-1.328,-10.303 -0.844,-31.8 0.035,-42.465c3.113,-37.803 34.08,-73.618 74.499,-84.489c-21.946,-18.184 -27.072,-48.2 -7.562,-69.563c34.256,-37.519 101.211,-13.521 97.219,35.728c-0.932,11.51 -8.274,25.765 -19.168,32.052m-42.538,-69.342c-43.171,5.609 -37.368,69.366 10.692,65.595c47.99,-3.763 42.618,-72.521 -10.692,-65.595m98.916,188.573l0,-33.874c0,-7.124 -6.902,-23.422 -10.903,-29.969c-34.379,-56.239 -124.749,-57.462 -160.447,-1.807c-4.247,6.634 -11.905,23.548 -11.905,30.869l0,34.782l183.254,0Z" style="fill:#37caca;fill-rule:nonzero;"/></svg>