<?xml version="1.0" encoding="UTF-8" standalone="no"?><!DOCTYPE svg PUBLIC "-//W3C//DTD SVG 1.1//EN" "http://www.w3.org/Graphics/SVG/1.1/DTD/svg11.dtd"><svg width="100%" height="100%" viewBox="0 0 540 610" version="1.1" xmlns="http://www.w3.org/2000/svg" xmlns:xlink="http://www.w3.org/1999/xlink" xml:space="preserve" xmlns:serif="http://www.serif.com/" style="fill-rule:evenodd;clip-rule:evenodd;stroke-linejoin:round;stroke-miterlimit:2;"><g opacity="0.87"><path d="M269.77,111.245c-87.413,0 -158.527,71.114 -158.527,158.527c0,53.943 26.603,103.045 71.474,132.5l0,68.361c0,5.697 4.617,10.322 10.322,10.322l153.46,0c5.706,0 10.322,-4.626 10.322,-10.322l0,-68.361c44.872,-29.456 71.474,-78.557 71.474,-132.5c0,-87.413 -71.114,-158.527 -158.527,-158.527m-30.589,177.867l-20.951,0c-11.546,0 -20.951,-9.396 -20.951,-20.951c0,-11.546 9.405,-20.951 20.951,-20.951c11.555,0 20.951,9.405 20.951,20.951l0,20.951Zm40.534,171.198l-19.88,0l0,-150.544l19.88,0l0,150.544Zm61.44,-72.554c-3.087,1.872 -4.977,5.22 -4.977,8.829l0,63.726l-35.818,0l0,-150.553l20.951,0c22.931,0 41.596,-18.656 41.596,-41.596c0,-22.931 -18.665,-41.596 -41.596,-41.596c-22.94,0 -41.596,18.665 -41.596,41.596l0,20.951l-19.889,0l0,-20.951c0,-22.931 -18.656,-41.596 -41.596,-41.596c-22.931,0 -41.596,18.665 -41.596,41.596c0,22.94 18.665,41.596 41.596,41.596l20.951,0l0,150.553l-35.818,0l0,-63.726c0,-3.609 -1.89,-6.957 -4.977,-8.829c-41.632,-25.253 -66.498,-69.36 -66.498,-117.984c0,-76.028 61.854,-137.882 137.882,-137.882c76.028,0 137.882,61.854 137.882,137.882c0,48.625 -24.866,92.731 -66.498,117.984m-40.795,-98.644l0,-20.951c0,-11.546 9.396,-20.951 20.951,-20.951c11.546,0 20.951,9.405 20.951,20.951c0,11.555 -9.405,20.951 -20.951,20.951l-20.951,0Z" style="fill:#37caca;fill-rule:nonzero;"/><path d="M346.503,503.025l-153.469,0c-5.697,0 -10.322,4.626 -10.322,10.322c0,5.697 4.626,10.322 10.322,10.322l153.469,0c5.697,0 10.322,-4.626 10.322,-10.322c0,-5.697 -4.626,-10.322 -10.322,-10.322" style="fill:#37caca;fill-rule:nonzero;"/><path d="M324.307,545.743l-109.075,0c-5.697,0 -10.322,4.626 -10.322,10.322c0,5.697 4.626,10.322 10.322,10.322l109.075,0c5.697,0 10.322,-4.626 10.322,-10.322c0,-5.697 -4.626,-10.322 -10.322,-10.322" style="fill:#37caca;fill-rule:nonzero;"/><path d="M285.811,588.461l-32.083,0c-5.697,0 -10.322,4.626 -10.322,10.322c0,5.697 4.626,10.322 10.322,10.322l32.083,0c5.697,0 10.322,-4.626 10.322,-10.322c0,-5.697 -4.626,-10.322 -10.322,-10.322" style="fill:#37caca;fill-rule:nonzero;"/><path d="M269.77,-0c-148.754,0 -269.77,121.017 -269.77,269.77c0,91.885 46.168,176.598 123.492,226.618c4.788,3.096 11.177,1.719 14.273,-3.069c3.096,-4.788 1.728,-11.177 -3.06,-14.273c-71.42,-46.186 -114.06,-124.428 -114.06,-209.276c0,-137.369 111.756,-249.126 249.126,-249.126c137.369,0 249.126,111.756 249.126,249.126c0,84.848 -42.64,163.09 -114.06,209.276c-4.788,3.096 -6.156,9.486 -3.06,14.273c1.971,3.06 5.292,4.725 8.676,4.725c1.917,0 3.861,-0.54 5.598,-1.656c77.324,-50.019 123.492,-134.732 123.492,-226.618c0,-148.754 -121.017,-269.77 -269.77,-269.77" style="fill:#37caca;fill-rule:nonzero;"/><path d="M269.77,111.245c-87.413,0 -158.527,71.114 -158.527,158.527c0,53.943 26.603,103.045 71.474,132.5l0,68.361c0,5.697 4.617,10.322 10.322,10.322l153.46,0c5.706,0 10.322,-4.626 10.322,-10.322l0,-68.361c44.872,-29.456 71.474,-78.557 71.474,-132.5c0,-87.413 -71.114,-158.527 -158.527,-158.527m-30.589,177.867l-20.951,0c-11.546,0 -20.951,-9.396 -20.951,-20.951c0,-11.546 9.405,-20.951 20.951,-20.951c11.555,0 20.951,9.405 20.951,20.951l0,20.951Zm40.534,171.198l-19.88,0l0,-150.544l19.88,0l0,150.544Zm61.44,-72.554c-3.087,1.872 -4.977,5.22 -4.977,8.829l0,63.726l-35.818,0l0,-150.553l20.951,0c22.931,0 41.596,-18.656 41.596,-41.596c0,-22.931 -18.665,-41.596 -41.596,-41.596c-22.94,0 -41.596,18.665 -41.596,41.596l0,20.951l-19.889,0l0,-20.951c0,-22.931 -18.656,-41.596 -41.596,-41.596c-22.931,0 -41.596,18.665 -41.596,41.596c0,22.94 18.665,41.596 41.596,41.596l20.951,0l0,150.553l-35.818,0l0,-63.726c0,-3.609 -1.89,-6.957 -4.977,-8.829c-41.632,-25.253 -66.498,-69.36 -66.498,-117.984c0,-76.028 61.854,-137.882 137.882,-137.882c76.028,0 137.882,61.854 137.882,137.882c0,48.625 -24.866,92.731 -66.498,117.984m-40.795,-98.644l0,-20.951c0,-11.546 9.396,-20.951 20.951,-20.951c11.546,0 20.951,9.405 20.951,20.951c0,11.555 -9.405,20.951 -20.951,20.951l-20.951,0Z" style="fill:#37caca;fill-rule:nonzero;"/><path d="M269.77,-0c-148.754,0 -269.77,121.017 -269.77,269.77c0,91.885 46.168,176.598 123.492,226.618c4.788,3.096 11.177,1.719 14.273,-3.069c3.096,-4.788 1.728,-11.177 -3.06,-14.273c-71.42,-46.186 -114.06,-124.428 -114.06,-209.276c0,-137.369 111.756,-249.126 249.126,-249.126c137.369,0 249.126,111.756 249.126,249.126c0,84.848 -42.64,163.09 -114.06,209.276c-4.788,3.096 -6.156,9.486 -3.06,14.273c1.971,3.06 5.292,4.725 8.676,4.725c1.917,0 3.861,-0.54 5.598,-1.656c77.324,-50.019 123.492,-134.732 123.492,-226.618c0,-148.754 -121.017,-269.77 -269.77,-269.77" style="fill:#37caca;fill-rule:nonzero;"/></g></svg>