<?xml version="1.0" encoding="UTF-8" standalone="no"?><!DOCTYPE svg PUBLIC "-//W3C//DTD SVG 1.1//EN" "http://www.w3.org/Graphics/SVG/1.1/DTD/svg11.dtd"><svg width="100%" height="100%" viewBox="0 0 642 602" version="1.1" xmlns="http://www.w3.org/2000/svg" xmlns:xlink="http://www.w3.org/1999/xlink" xml:space="preserve" xmlns:serif="http://www.serif.com/" style="fill-rule:evenodd;clip-rule:evenodd;stroke-linecap:round;stroke-linejoin:round;stroke-miterlimit:10;"><path d="M321.905,3.333c22.484,13.146 21.945,33.732 20.632,54.7c-1.059,16.984 -0.647,32.528 15.124,46.103c12.81,11.031 11.526,38.764 -1.921,50.051c-13.046,10.94 -13.291,23.229 -13.281,36.959c0.059,106.365 0.029,212.73 0.029,319.094m-19.603,-501.438c-26.817,5.908 -26.131,9.427 -25.67,29.183c0.323,13.958 0.353,28.198 -2.313,41.837c-1.647,8.396 -7.704,16.519 -13.379,23.667c-11.174,14.067 -15.643,34.306 -3.176,45.173c20.857,18.188 19.221,39.995 19.093,62.541c-0.167,29.173 -0.039,58.347 -0.039,87.52c0,49.841 0.186,99.682 -0.088,149.514c-0.108,20.066 -1.215,40.123 -1.872,60.179m-66.65,-401.154c-66.003,0 -131.996,-0.119 -197.998,0.073c-21.534,0.064 -27.816,5.443 -27.444,21.807c0.353,15.362 8.792,21.825 29.404,21.853c65.346,0.091 130.692,0.027 196.038,0.027m11.762,401.154c-9.801,1.823 -19.524,4.294 -29.424,5.324c-15.712,1.632 -21.485,8.333 -21.759,23.849c-0.255,15.033 8.655,16.647 21.779,16.583c71.874,-0.365 143.757,-0.128 215.631,-0.228c10.242,-0.018 22.533,2.908 23.612,-12.709c0.98,-14.268 -8.243,-25.7 -23.612,-27.295c-51.604,-5.37 -103.258,3.346 -154.853,-0.219c-9.89,-0.684 -19.613,-3.483 -29.414,-5.306m-199.959,-242.514c-26.934,10.001 -34.364,26.703 -7.39,59.851c20.769,25.527 51.536,38.482 85.664,32.437c35.04,-6.218 61.563,-25.8 72.668,-59.468c5.842,-17.714 -10.105,-32.073 -29.414,-31.526c-39.804,1.14 -79.705,-0.684 -119.568,-1.295m421.471,0c-25.337,13.183 -29.63,24.305 -15.496,47.316c19.701,32.073 50.193,48.829 89.948,45.265c36.451,-3.273 62.18,-23.321 75.824,-54.545c3.234,-7.394 0.5,-19.2 -3.891,-26.767c-4.911,-8.46 -13.791,-9.655 -26.885,-8.871c-38.314,2.288 -77.02,-1.185 -115.578,-2.398m-60.769,-202.4c65.346,0 130.692,0 196.038,0.009c18.338,0 32.168,8.342 33.325,20.048c1.137,11.514 -15.016,23.539 -33.325,23.612c-65.346,0.246 -130.692,0.091 -196.038,0.091m-325.417,31.006c-7.841,23.703 -15.731,47.389 -23.504,71.11c-5.969,18.215 -11.781,36.467 -17.662,54.7m88.213,-125.811c3.921,13.976 7.273,28.125 11.889,41.9c9.4,28.07 19.485,55.949 29.287,83.91m335.218,-125.811c-1.96,8.506 -3.127,17.258 -6.028,25.481c-10.752,30.495 -22.151,60.799 -33.05,91.249c-0.98,2.735 -0.137,6.044 -0.137,9.08m88.223,-122.164c1.96,9.117 2.862,18.571 6.077,27.286c10.586,28.727 22.102,57.171 32.992,85.807c1.029,2.699 0.137,6.035 0.137,9.071m-354.821,242.514c4.92,-27.797 24.111,-41.499 56.848,-40.059c20.269,0.893 40.519,2.325 60.769,3.601c26.199,1.65 37.549,12.499 39.206,37.369" style="fill:none;fill-rule:nonzero;stroke:#37caca;stroke-width:6.67px;"/></svg>