<?xml version="1.0" encoding="UTF-8" standalone="no"?><!DOCTYPE svg PUBLIC "-//W3C//DTD SVG 1.1//EN" "http://www.w3.org/Graphics/SVG/1.1/DTD/svg11.dtd"><svg width="100%" height="100%" viewBox="0 0 556 574" version="1.1" xmlns="http://www.w3.org/2000/svg" xmlns:xlink="http://www.w3.org/1999/xlink" xml:space="preserve" xmlns:serif="http://www.serif.com/" style="fill-rule:evenodd;clip-rule:evenodd;stroke-linejoin:round;stroke-miterlimit:2;"><path d="M508.095,47.809l41.903,1.805c5.981,2.677 8.008,9.802 3.524,15.045l-64.58,64.869c-15.223,2.064 -30.495,-1.589 -45.75,-1.606l-16.43,17.852c97.615,115.911 53.453,298.624 -85.726,350.97c-122.186,45.955 -256.31,-35.945 -277.283,-169.146c-29.196,-185.409 163.982,-321.131 317.532,-221.656c11.177,7.246 20.675,16.539 31.595,24.087c1.646,-0.302 15.504,-13.706 16.066,-15.71c0.695,-2.427 0.339,-5.864 0.232,-8.472c-0.397,-10.105 -3.599,-22.8 -3.599,-32.491c0,-2.375 0.736,-3.636 1.886,-5.527c3.946,-6.469 19.971,-21.151 26.209,-27.542c13.022,-13.343 26.888,-26.074 40.092,-39.244c4.294,-3.126 14.329,1.321 14.329,6.21l0,40.557Zm-19.128,4.37l0,-18.093l-41.308,39.857c-3.872,6.132 -1.076,14.708 0.058,21.28l41.25,-43.044Zm33.473,15.598l-20.923,0l-38.842,40.566c6.048,0.147 14.122,4.076 19.781,0.682l39.984,-41.248Zm-266.817,25.331c-200.946,15.416 -241.799,310.068 -51.782,384.005c175.928,68.453 331.124,-146.259 219.875,-303.159c-1.489,-2.09 -10.457,-14.103 -11.773,-13.792l-24.364,24.277c69.387,83.636 39.67,215.688 -58.814,257.074c-123.824,52.026 -248.07,-71.441 -205.637,-203.442c34.954,-108.725 169.103,-144.8 250.66,-68.073l24.24,-24.398c0.306,-1.831 -8.174,-8.775 -10.102,-10.407c-36.104,-30.452 -85.991,-45.644 -132.304,-42.086m3.582,56.155c-59.029,4.759 -110.273,51.318 -122.327,111.895c-22.925,115.194 89.052,208.658 191.515,158.748c80.729,-39.313 104.01,-150.767 45.221,-221.077l-22.164,24.312c38.892,51.413 25.986,128.174 -28.278,161.364c-76.295,46.663 -169.459,-20.52 -155.419,-111.083c12.79,-82.513 107.154,-118.415 169.004,-66.052l23.016,-21.833c0.513,-3.083 -13.874,-12.808 -16.745,-14.699c-24.853,-16.409 -54.446,-23.94 -83.823,-21.574m79.116,88.239l-2.987,1.209l-21.973,22.049c18.217,28.38 6.362,69.826 -24.894,81.278c-44.989,16.487 -85.999,-31.523 -64.307,-75.863c14.66,-29.951 49.49,-36.653 76.361,-20.149l22.288,-24.087c-40.48,-33.665 -99.749,-21.738 -125.727,24.7c-43.699,78.109 40.936,166.469 115.766,120.851c44.427,-27.084 54.685,-86.313 25.473,-129.988m-38.238,38.674c-10.49,3.61 -24.199,33.898 -36.476,22.489c-2.234,-2.073 -3.169,-5.018 -3.045,-8.11c0.306,-7.721 19.442,-22.956 25.159,-28.725c-28.997,-18.042 -61.122,17.998 -43.235,47.656c21.427,35.539 74.16,6.071 57.598,-33.311" style="fill:#37caca;fill-rule:nonzero;"/><path d="M142.297,515.768c-0.91,-8.049 -7.661,-22.446 -0.43,-28.509c6.329,-5.303 13.121,-1.485 15.413,6.02c2.019,6.607 8.679,40.281 7.702,45.558c-0.637,3.42 -3.864,5.484 -6.858,6.564c-8.257,2.98 -30.487,7.609 -39.446,8.749c-8.265,1.054 -14.544,-1.891 -13.51,-11.59c1.051,-9.828 15.884,-8.896 22.784,-11.176c-51.145,-34.088 -92.171,-84.569 -112.382,-144.739c-37.031,-110.254 -6.619,-231.303 76.51,-308.28c7.545,-6.987 42.88,-34.995 50.913,-35.531c7.917,-0.535 13.336,9.405 8.248,16.185c-32.373,20.253 -60.253,43.986 -82.839,75.751c-80.341,113.026 -60.493,274.632 45.337,361.533c2.788,2.289 27.177,20.926 28.559,19.467" style="fill:#37caca;fill-rule:nonzero;"/><path d="M526.038,198.808c27.88,87.263 14.685,182.42 -36.6,256.936c-39.281,57.07 -100.006,98.465 -166.389,112.076c-12.749,2.617 -41.366,7.194 -53.362,5.286c-11.376,-1.822 -11.93,-16.453 -3.127,-19.337c5.758,-1.874 21.808,-0.941 29.345,-1.805c152.234,-17.584 255.185,-169.733 217.824,-325.959c-1.688,-7.039 -4.459,-13.792 -5.642,-20.952c-4.724,4.448 -3.93,13.361 -7.338,19.156c-6.47,11.02 -19.607,5.795 -17.473,-8.248c1.216,-8.015 10.234,-38.122 13.46,-45.86c1.82,-4.361 4.906,-6.469 9.547,-6.322l46.073,28.138c4.873,5.596 0.885,15.459 -5.692,16.686c-5.708,1.062 -15.074,-7.756 -20.625,-9.794" style="fill:#37caca;fill-rule:nonzero;"/></svg>