<?xml version="1.0" encoding="UTF-8" standalone="no"?><!DOCTYPE svg PUBLIC "-//W3C//DTD SVG 1.1//EN" "http://www.w3.org/Graphics/SVG/1.1/DTD/svg11.dtd"><svg width="100%" height="100%" viewBox="0 0 1491 216" version="1.1" xmlns="http://www.w3.org/2000/svg" xmlns:xlink="http://www.w3.org/1999/xlink" xml:space="preserve" xmlns:serif="http://www.serif.com/" style="fill-rule:evenodd;clip-rule:evenodd;stroke-linejoin:round;stroke-miterlimit:2;"><g id="Layer_2"><g id="Layer_1-2"><path d="M325.958,37.5l111.958,0l0,34l-73.167,0l0,23.917l66.167,0l0,32.167l-66.167,0c0,0 0,39.334 0,39.334c0,5.829 -4.796,10.625 -10.625,10.625c-0.042,0 -0.083,-0 -0.125,-0.001l-28.042,0l0,-140.042Z" style="fill:#fff;fill-rule:nonzero;stroke:#000;stroke-width:4.17px;"/><path d="M457.708,37.5l112.5,0l0,33.333l-74.125,0l0,20.833l67.125,0l0,30.583l-67.125,0l0,22.333l75,0l0,22.333c0,5.829 -4.796,10.625 -10.625,10.625l-102.75,0l0,-140.042Z" style="fill:#fff;fill-rule:nonzero;stroke:#000;stroke-width:4.17px;"/><path d="M647.792,143.167c23.167,0 38.542,-12.792 38.542,-35.375l0,-0.375c0,-22.417 -15.375,-35.375 -38.542,-35.375l-15.792,0l0,71.125l15.792,0Zm-54.583,-105.667l54.167,0c50,0 78.958,28.792 78.958,69.167l0,0.417c0,40.375 -29.375,70.333 -79.75,70.333l-53.375,0l0,-139.917Z" style="fill:#fff;fill-rule:nonzero;stroke:#000;stroke-width:4.17px;"/><path d="M743.5,108l0,-0.417c0,-40.75 32,-72.75 75.375,-72.75c20.823,-0.693 41.141,6.617 56.75,20.417l-22.792,27.375c-9.157,-8.533 -21.233,-13.26 -33.75,-13.208c-20.208,0 -35.792,17 -35.792,38.375l0,0.542c0,22.583 15.792,38.75 37.958,38.75c7.881,0.344 15.688,-1.673 22.417,-5.792l0,-17.083l-27.583,0l0,-28.375l53.708,0c5.829,-0 10.625,4.796 10.625,10.625l0,52.292c-17.09,14.09 -38.601,21.732 -60.75,21.583c-43.583,0 -76.167,-29.958 -76.167,-72.333" style="fill:#fff;fill-rule:nonzero;stroke:#000;stroke-width:4.17px;"/><path d="M968.583,104.792c13.167,0 20.833,-6.375 20.833,-16.667l0,-0.417c0,-10.958 -8,-16.667 -20.833,-16.667l-25.375,0l0,33.583l25.375,0.167Zm-64.375,-67.292l66.167,0c21.375,0 36.167,5.625 45.583,15.208c8.528,8.636 13.063,20.459 12.5,32.583l0,0.417c0.638,18.972 -11.001,36.337 -28.792,42.958l33.333,48.75l-44.833,0l-28.167,-42.375l-17,0l0,31.75c0,5.829 -4.796,10.625 -10.625,10.625l-28.167,0l0,-139.917Z" style="fill:#fff;fill-rule:nonzero;stroke:#000;stroke-width:4.17px;"/><path d="M1156.458,108l0,-0.417c0,-20.167 -14.583,-37.75 -35.958,-37.75c-21.375,0 -35.375,17.167 -35.375,37.5l0,0.375c0,20.208 14.583,37.792 35.75,37.792c21.167,0 35.583,-17.208 35.583,-37.5m-111.125,0l0,-0.417c0,-40.167 32.375,-72.75 75.542,-72.75c43.167,-0 75,32.208 75,72.375l0,0.375c0,40.208 -32.375,72.75 -75.542,72.75c-43.167,0 -75,-32.167 -75,-72.333" style="fill:#fff;fill-rule:nonzero;stroke:#000;stroke-width:4.17px;"/><path d="M1216.5,116.208l0,-78.708l39.375,0l0,77.875c0,20.208 10.208,29.792 25.792,29.792c15.583,0 25.792,-9.167 25.792,-28.792l0,-78.875l39.375,0l0,77.708c0,45.167 -25.792,64.958 -65.583,64.958c-39.792,0 -64.75,-20.208 -64.75,-63.958" style="fill:#fff;fill-rule:nonzero;stroke:#000;stroke-width:4.17px;"/><path d="M1429.292,107.208c13.792,0 22.167,-7.208 22.167,-18.208l0,-0.375c0,-12 -8.333,-18.417 -22.375,-18.417l-18.167,0l0,37l18.375,-0Zm-57.167,-69.708l59.958,0c35.375,0 58.333,18.208 58.333,49.208l0,0.375c0,33 -25.375,50.375 -60.167,50.375l-19.167,0l0,29.167c0,5.829 -4.796,10.625 -10.625,10.625l-28.167,0l-0.167,-139.75Z" style="fill:#fff;fill-rule:nonzero;stroke:#000;stroke-width:4.17px;"/><rect x="-0.167" y="0" width="215.208" height="215.208" style="fill:#fff;stroke:#000;stroke-width:4.17px;"/><rect x="34.25" y="58.167" width="146.375" height="35.458" style="fill:#1d1e4d;"/><rect x="50.792" y="121.583" width="113.25" height="35.458" style="fill:#e72076;"/></g></g></svg>