<?xml version="1.0" encoding="UTF-8" standalone="no"?><!DOCTYPE svg PUBLIC "-//W3C//DTD SVG 1.1//EN" "http://www.w3.org/Graphics/SVG/1.1/DTD/svg11.dtd"><svg width="100%" height="100%" viewBox="0 0 673 353" version="1.1" xmlns="http://www.w3.org/2000/svg" xmlns:xlink="http://www.w3.org/1999/xlink" xml:space="preserve" xmlns:serif="http://www.serif.com/" style="fill-rule:evenodd;clip-rule:evenodd;stroke-linejoin:round;stroke-miterlimit:2;"><path d="M219.167,49.195c18.75,-13.75 39.583,-25 60.833,-35c18.75,-8.333 39.583,-12.917 60.417,-13.333c18.75,-0.417 37.917,3.75 55.833,10.833c17.5,7.5 31.667,20.417 41.667,36.667c18.75,-13.75 39.583,-25 60.833,-35c18.75,-8.333 39.583,-12.917 60.417,-13.333c18.75,-0.417 37.917,3.75 55.833,10.833c17.5,7.5 31.667,20.417 41.667,36.667c10.417,17.5 15.833,40.833 15.833,70.833l0,232.917l-86.667,0l0,-207.083c0.833,-17.083 -2.083,-33.75 -8.75,-49.167c-6.667,-12.917 -20.417,-19.583 -40.833,-20c-15.417,0 -30.833,3.75 -44.583,10.833c-13.333,6.25 -26.25,14.167 -37.917,23.75c0,2.917 0.417,6.667 0.417,9.583l0,232.917l-86.667,0l0,-207.917c0.833,-17.083 -2.083,-33.75 -8.75,-49.167c-6.667,-12.917 -20.417,-19.583 -41.667,-20c-15.417,0 -30.833,3.75 -44.583,10.833c-13.333,6.667 -26.25,14.167 -37.5,23.75c0,2.917 0.417,6.667 0.417,9.583l0,232.917l-87.083,0l0,-207.917c0.833,-17.083 -2.083,-33.75 -9.167,-49.167c-6.667,-12.917 -20,-19.583 -40.833,-20c-15.417,0 -30.833,3.75 -45,10.833c-13.333,6.667 -26.25,14.167 -37.917,24.167c-0.417,-25.417 -5.833,-45.417 -15.417,-60.833c18.75,-13.75 39.583,-25.417 60.833,-35c18.75,-8.333 39.583,-12.917 60.417,-13.333c18.75,-0.417 37.917,3.75 55.833,10.833c17.917,7.917 32.5,20.833 42.083,37.5" style="fill:#ff3a2f;fill-rule:nonzero;"/></svg>