<?xml version="1.0" encoding="UTF-8" standalone="no"?><!DOCTYPE svg PUBLIC "-//W3C//DTD SVG 1.1//EN" "http://www.w3.org/Graphics/SVG/1.1/DTD/svg11.dtd"><svg width="100%" height="100%" viewBox="0 0 855 209" version="1.1" xmlns="http://www.w3.org/2000/svg" xmlns:xlink="http://www.w3.org/1999/xlink" xml:space="preserve" xmlns:serif="http://www.serif.com/" style="fill-rule:evenodd;clip-rule:evenodd;stroke-linejoin:round;stroke-miterlimit:2;"><path d="M283.667,98.696c-17.875,-3.638 -21.15,-7.458 -21.15,-13.692l0,-0.225c0,-6.529 6.583,-11.092 16.012,-11.092c8.388,0 15.646,2.6 22.854,8.175l1.208,0.933l7.342,-9.242l-1.25,-0.954c-9.133,-6.958 -18.083,-9.929 -29.917,-9.929c-16.6,0 -28.646,9.629 -28.646,22.892l0,0.225c0,15.042 11.562,20.504 28.933,24.083c17.075,3.417 20.2,7.183 20.2,13.358l0,0.221c0,6.925 -6.925,11.762 -16.833,11.762c-10.517,0 -18.417,-3.1 -27.275,-10.692l-1.15,-0.992l-7.833,8.796l1.208,1.021c10.375,8.792 21.4,12.883 34.692,12.883c17.492,0 29.708,-9.733 29.708,-23.671l0,-0.221c0,-12.5 -8.404,-19.575 -28.104,-23.642Zm102.858,3.125l-26.75,-37.688l-14.979,0l35.417,48.904l0,31.733l12.383,0l0,-31.846l35.421,-48.792l-14.517,0l-26.975,37.688Zm112.688,9.387l24.929,0l0,17.05c-6.008,4.4 -14.212,7.013 -22.108,7.013c-18.475,0 -30.883,-12.383 -30.883,-30.817l0,-0.229c0,-17.029 13,-30.375 29.596,-30.375c11.967,0 18.583,4.108 23.95,8.546l1.138,0.942l8.025,-8.979l-1.262,-1.008c-9.467,-7.583 -18.592,-10.679 -31.496,-10.679c-23.896,0 -42.613,18.354 -42.613,41.783l0,0.217c0,24.471 17.762,41.558 43.196,41.558c12.382,0.051 24.389,-4.295 33.871,-12.258l0.546,-0.458l0,-33.263l-36.888,0l0,10.958Zm144.454,7.158l-60.229,-55.867l0,82.371l12.067,0l0,-54.392l60.229,55.925l0,-82.375l-12.067,0l-0,54.338Zm65.746,26.404l12.275,0l0,-80.646l-12.275,0l0,80.646Zm117.012,-31.325l-32.175,0l16.142,-34.112l16.033,34.112Zm-10.671,-49.317l-10.492,0l-38.408,80.646l12.75,0l9.621,-20.371l42.217,0l9.504,20.371l13.217,0l-38.408,-80.646Z"/><path d="M76.996,97.771l40.321,-40.4l8.05,8.067l0,-37.712l-69.917,70.042l21.542,0l0.004,0.004Zm54.821,-0.021l12.867,-12.892l8.046,8.067l0,-37.717l-42.458,42.542l21.546,0Zm-116.371,36.492l136.637,0l0,11.654l27.083,-27.133l-179.167,0l15.446,15.479Zm7.108,-36.521l67.467,-67.596l8.229,8.25l0,-38.375l-97.542,97.721l21.846,0Zm67.171,110.613l21.513,-21.554l-43.317,0l21.804,21.554Zm-40.7,-40.521l69.362,0l0,11.654l27.083,-27.133l-111.887,0l15.442,15.479Z" style="fill:#a89564;"/></svg>