<?xml version="1.0" encoding="UTF-8" standalone="no"?>
<!DOCTYPE svg PUBLIC "-//W3C//DTD SVG 1.1//EN" "http://www.w3.org/Graphics/SVG/1.1/DTD/svg11.dtd">
<svg width="100%" height="100%" viewBox="0 0 142 114" version="1.1" xmlns="http://www.w3.org/2000/svg" xmlns:xlink="http://www.w3.org/1999/xlink" xml:space="preserve" xmlns:serif="http://www.serif.com/" style="fill-rule:evenodd;clip-rule:evenodd;stroke-linejoin:round;stroke-miterlimit:2;">
    <g>
        <path d="M12.3,79.4L18.5,79.4C20.3,79.4 21.6,79.9 22.5,80.8C23.2,81.6 23.7,82.6 23.7,83.8C23.7,86.1 22.3,87.5 20.4,88.1L24.2,93.4L21.3,93.4L17.9,88.5L14.8,88.5L14.8,93.4L12.3,93.4L12.3,79.4ZM18.4,86.3C20.2,86.3 21.3,85.4 21.3,84C21.3,82.4 20.2,81.6 18.4,81.6L14.8,81.6L14.8,86.3L18.4,86.3Z" style="fill:white;fill-rule:nonzero;"/>
        <path d="M29.2,79.4L39.6,79.4L39.6,81.6L31.7,81.6L31.7,85.2L38.7,85.2L38.7,87.4L31.7,87.4L31.7,91.1L39.7,91.1L39.7,93.3L29.2,93.3L29.2,79.3L29.2,79.4Z" style="fill:white;fill-rule:nonzero;"/>
        <path d="M45,79.4L47.6,79.4L51.9,86L56.2,79.4L58.8,79.4L58.8,93.4L56.3,93.4L56.3,83.4L51.9,90L47.5,83.4L47.5,93.4L45.1,93.4L45.1,79.4L45,79.4Z" style="fill:white;fill-rule:nonzero;"/>
        <path d="M64.8,79.4L67.1,79.4L74.6,89.1L74.6,79.4L77,79.4L77,93.4L74.9,93.4L67.2,83.4L67.2,93.4L64.8,93.4L64.8,79.4Z" style="fill:white;fill-rule:nonzero;"/>
        <path d="M87.9,79.3L90.2,79.3L96.4,93.4L93.8,93.4L92.4,90L85.8,90L84.4,93.4L81.9,93.4L88.1,79.3L87.9,79.3ZM91.4,87.8L89,82.2L86.6,87.8L91.4,87.8Z" style="fill:white;fill-rule:nonzero;"/>
        <path d="M101.1,79.4L103.4,79.4L110.9,89.1L110.9,79.4L113.3,79.4L113.3,93.4L111.2,93.4L103.5,83.4L103.5,93.4L101.1,93.4L101.1,79.4Z" style="fill:white;fill-rule:nonzero;"/>
        <path d="M122.8,81.6L118.3,81.6L118.3,79.3L129.7,79.3L129.7,81.6L125.2,81.6L125.2,93.3L122.7,93.3L122.7,81.6L122.8,81.6Z" style="fill:white;fill-rule:nonzero;"/>
    </g>
    <rect x="56.9" y="17" width="27.8" height="4.6" style="fill:white;"/>
    <path d="M70.9,64.6L44.4,48.3L42.7,50.9L70.8,68.3L99,50.9L97.3,48.3L70.9,64.6Z" style="fill:white;fill-rule:nonzero;"/>
    <rect x="61.6" y="23.7" width="18.3" height="4.6" style="fill:white;"/>
    <rect x="82.2" y="32.8" width="11.5" height="4.6" style="fill:white;"/>
    <rect x="82.2" y="26" width="16.2" height="4.6" style="fill:white;"/>
    <rect x="47.9" y="32.8" width="11.5" height="4.6" style="fill:white;"/>
    <rect x="43.1" y="26" width="16.2" height="4.6" style="fill:white;"/>
    <path d="M52.4,51.1L52.4,39.7L47.9,39.7L47.9,48.2L52.4,51.1Z" style="fill:white;fill-rule:nonzero;"/>
    <path d="M59.3,55.3L59.3,39.7L54.7,39.7L54.7,52.5L59.3,55.3Z" style="fill:white;fill-rule:nonzero;"/>
    <path d="M66.2,59.6L66.2,30.6L61.6,30.6L61.6,56.7L66.2,59.6Z" style="fill:white;fill-rule:nonzero;"/>
    <path d="M70.8,62.4L73.1,61.1L73.1,30.6L68.5,30.6L68.5,61L70.8,62.4Z" style="fill:white;fill-rule:nonzero;"/>
    <path d="M79.9,56.8L79.9,30.6L75.4,30.6L75.4,59.6L79.9,56.8Z" style="fill:white;fill-rule:nonzero;"/>
    <path d="M86.8,52.6L86.8,39.7L82.2,39.7L82.2,55.4L86.8,52.6Z" style="fill:white;fill-rule:nonzero;"/>
    <path d="M93.7,48.3L93.7,39.7L89.1,39.7L89.1,51.1L93.7,48.3Z" style="fill:white;fill-rule:nonzero;"/>
</svg>
